<svg width="221" height="52" viewBox="0 0 221 52" fill="none" xmlns="http://www.w3.org/2000/svg">
<g id="Logo">
<g id="WASP">
<g id="Group">
<path id="Vector" d="M30.0645 29.8234L25.5 34.2774L20.9355 29.8234L17.561 26.5254V33.1129L25.5 40.8649L33.439 33.1129V26.5254L30.0645 29.8234Z" fill="#00A045"/>
<g id="Group_2">
<path id="Vector_2" d="M51 40.763V27.69L29.053 11.8715L33.439 7.596V1L30.0645 4.298L25.5 8.752L20.9355 4.298L17.561 1V7.5875L21.947 11.863L0 27.69V40.763L20.74 20.1505V25.48L25.5 30.1295L30.26 25.48V20.1505L51 40.763ZM21.3775 19.513L25.5 15.4925L29.6225 19.513L25.5 23.5335L21.3775 19.513Z" fill="#FFE600"/>
<path id="Vector_3" d="M25.5002 45.4122L20.9357 40.9497L20.7402 40.7627V47.3502L25.5002 51.9997L30.2602 47.3502V40.7627L30.0647 40.9497L25.5002 45.4122Z" fill="#00A045"/>
</g>
</g>
<g id="Group_3">
<path id="Vector_4" d="M81.5425 11.0088H83.812L76.7485 29.6833H74.479L69.906 17.5538L65.3075 29.6833H63.0635L56 11.0088H58.244L64.1855 26.6998L68.7585 14.5618H71.028L75.601 26.6913L81.5425 11.0088Z" fill="#FFE600"/>
<path id="Vector_5" d="M93.3403 16.3213H95.4483V29.6833H93.3403V27.8728C92.1588 28.9948 90.5438 29.6833 88.7928 29.6833C85.0953 29.6833 82.1118 26.6998 82.1118 23.0023C82.1118 19.3048 85.0953 16.3213 88.7928 16.3213C90.5438 16.3213 92.1588 17.0098 93.3403 18.1318V16.3213ZM93.3403 23.0023C93.3403 20.4863 91.3173 18.4293 88.7928 18.4293C86.2768 18.4293 84.2198 20.4863 84.2198 23.0023C84.2198 25.5183 86.2768 27.5753 88.7928 27.5753C91.3088 27.5668 93.3403 25.5183 93.3403 23.0023Z" fill="#FFE600"/>
<path id="Vector_6" d="M109.312 21.8718V29.6748H107.204V21.8718C107.153 19.9848 105.614 18.4208 103.702 18.4208C101.789 18.4208 100.225 19.9848 100.2 21.8718V29.6748H98.0918V16.3213H100.2V17.5538C101.16 16.7888 102.367 16.3213 103.702 16.3213C106.77 16.3213 109.286 18.8118 109.312 21.8718Z" fill="#FFE600"/>
<path id="Vector_7" d="M125.572 24.583C125.462 27.456 122.368 29.785 118.398 29.785C115.279 29.785 112.618 28.357 111.632 26.3595C111.139 25.4585 111.029 24.6595 111.029 24.6595H113.298C113.383 26.0875 115.432 27.643 118.39 27.643C121.373 27.643 123.371 26.028 123.456 24.5745C123.541 23.393 122.606 22.3815 120.906 21.9225C118.356 21.268 116.443 21.404 114.25 20.4435C112.389 19.5085 111.182 17.953 111.182 16.202C111.182 13.329 114.412 11 118.381 11C121.229 11 123.694 12.207 124.841 13.9325C125.334 14.723 125.445 15.4965 125.445 15.4965H123.303C122.784 14.264 120.897 13.1165 118.398 13.1165C115.389 13.1165 113.307 14.757 113.307 16.2105C113.307 18.0465 116.018 18.922 116.129 18.9475C117.523 19.3555 120.838 19.8825 122.155 20.231C122.317 20.2565 122.699 20.4265 122.81 20.452C124.263 21.03 125.657 22.56 125.572 24.583Z" fill="#00A045"/>
<path id="Vector_8" d="M146.822 16.3213H149.066L144.162 29.6833H141.918L137.838 18.5908L133.758 29.6833H131.514L126.609 16.3213H128.853L132.636 26.6148L136.418 16.3213H139.266L143.048 26.6148L146.822 16.3213Z" fill="#00A045"/>
<path id="Vector_9" d="M160.89 16.3213H162.998V29.6833H160.89V27.8728C159.709 28.9948 158.094 29.6833 156.343 29.6833C152.645 29.6833 149.662 26.6998 149.662 23.0023C149.662 19.3048 152.645 16.3213 156.343 16.3213C158.094 16.3213 159.709 17.0098 160.89 18.1318V16.3213ZM160.89 23.0023C160.89 20.4863 158.867 18.4293 156.343 18.4293C153.827 18.4293 151.77 20.4863 151.77 23.0023C151.77 25.5183 153.827 27.5753 156.343 27.5753C158.867 27.5668 160.89 25.5183 160.89 23.0023Z" fill="#00A045"/>
<path id="Vector_10" d="M178.978 23.0023C178.978 26.6998 175.995 29.6833 172.323 29.6833C170.546 29.6833 168.957 28.9948 167.75 27.8728V36.8828H165.642V23.0023V16.3213H167.75V18.1318C168.957 17.0098 170.546 16.3213 172.323 16.3213C175.995 16.3213 178.978 19.3048 178.978 23.0023ZM176.87 23.0023C176.87 20.4863 174.813 18.4293 172.323 18.4293C169.807 18.4293 167.75 20.4863 167.75 23.0023C167.75 25.5183 169.807 27.5753 172.323 27.5753C174.813 27.5668 176.87 25.5183 176.87 23.0023Z" fill="#00A045"/>
</g>
</g>
<path id="Rectangle 54" d="M187 4C187 1.79086 188.791 0 191 0H217C219.209 0 221 1.79086 221 4V18C221 20.2091 219.209 22 217 22H187V4Z" fill="#00A045"/>
<g id="V2">
<path d="M197.122 6.1392L199.21 13.3182H199.29L201.378 6.1392H204.5L201.139 16.321H197.361L194 6.1392H197.122Z" fill="white"/>
<path d="M205.501 16.321V14.3324L209.299 11.1903C209.551 10.9815 209.766 10.786 209.945 10.6037C210.127 10.4181 210.267 10.2275 210.363 10.032C210.462 9.83641 210.512 9.61932 210.512 9.38068C210.512 9.11884 210.456 8.89512 210.343 8.70952C210.233 8.52391 210.081 8.38139 209.885 8.28196C209.69 8.17921 209.465 8.12784 209.209 8.12784C208.954 8.12784 208.729 8.17921 208.533 8.28196C208.341 8.38471 208.192 8.53551 208.086 8.73438C207.98 8.93324 207.927 9.17519 207.927 9.46023H205.302C205.302 8.74432 205.462 8.12784 205.784 7.6108C206.105 7.09375 206.559 6.69602 207.146 6.41761C207.733 6.1392 208.421 6 209.209 6C210.025 6 210.731 6.13092 211.327 6.39276C211.927 6.65128 212.39 7.01586 212.714 7.48651C213.042 7.95715 213.206 8.509 213.206 9.14205C213.206 9.53314 213.125 9.92259 212.963 10.3104C212.8 10.6948 212.509 11.1207 212.088 11.5881C211.667 12.0554 211.069 12.6122 210.293 13.2585L209.339 14.054V14.1136H213.316V16.321H205.501Z" fill="white"/>
</g>
<g id="Analytics">
<path d="M60.3795 35.3018L56 46.8787H57.4089L58.4274 44.1797H63.7406L64.7591 46.8787H66.168L61.7885 35.3018H60.3795ZM58.9197 42.8727L61.0925 37.1521L63.2483 42.8727H58.9197Z" fill="white"/>
<path d="M70.3213 38.595C69.4895 38.595 68.7426 38.8835 68.1485 39.3588V38.595H66.8414V46.8787H68.1485V42.0409C68.1655 40.8696 69.1331 39.902 70.3213 39.902C71.5095 39.902 72.4601 40.8696 72.4941 42.0409V46.8787H73.8012V42.0409C73.7842 40.1397 72.2225 38.595 70.3213 38.595Z" fill="white"/>
<path d="M81.4432 39.7153C80.7133 39.0193 79.7118 38.595 78.6254 38.595C76.3338 38.595 74.4835 40.4452 74.4835 42.7369C74.4835 45.0285 76.3338 46.8787 78.6254 46.8787C79.7118 46.8787 80.7133 46.4544 81.4432 45.7584V46.8787H82.7503V38.595H81.4432V39.7153ZM78.6254 45.5717C77.0637 45.5717 75.7906 44.2985 75.7906 42.7369C75.7906 41.1752 77.0637 39.902 78.6254 39.902C80.1871 39.902 81.4432 41.1752 81.4432 42.7369C81.4432 44.2985 80.1871 45.5717 78.6254 45.5717Z" fill="white"/>
<path d="M84.1062 46.8787H85.4132V35.166H84.1062V46.8787Z" fill="white"/>
<path d="M90.7129 44.5022L87.895 38.595H86.4522L90.0508 46.1488L89.1172 48.4574L88.8796 49.0685C88.8796 49.0685 88.8796 49.0685 88.8626 49.0855C88.625 49.6457 88.0648 50.0361 87.4197 50.0361V51.3432C87.6065 51.3432 87.7932 51.3262 87.9799 51.2922C88.9305 51.1055 89.7113 50.4605 90.0848 49.5778V49.5608L94.4983 38.595H93.0894L90.7129 44.5022Z" fill="white"/>
<path d="M99.1439 45.5717C98.2781 45.5717 97.5652 44.8587 97.5652 43.976V39.902H98.9911V38.595H97.5652V35.9808L96.2581 36.2694V38.595H95.1717V39.902H96.2581V43.976C96.2581 45.5717 97.5482 46.8787 99.1439 46.8787H100.264L99.8908 45.5717H99.1439Z" fill="white"/>
<path d="M102.587 38.595H101.28V46.8787H102.587V38.595ZM102.825 35.9808H101.28V37.2879H102.451L102.825 35.9808Z" fill="white"/>
<path d="M107.735 39.902C108.668 39.902 109.517 40.3773 110.026 41.0903L110.96 40.1567C110.196 39.2061 109.042 38.595 107.735 38.595C105.443 38.595 103.593 40.4452 103.593 42.7369C103.593 45.0285 105.443 46.8787 107.735 46.8787C109.042 46.8787 110.196 46.2676 110.96 45.317L110.026 44.3834C109.517 45.0964 108.668 45.5717 107.735 45.5717C106.173 45.5717 104.9 44.2985 104.9 42.7369C104.9 41.1752 106.173 39.902 107.735 39.902Z" fill="white"/>
<path d="M115.98 42.4313C115.861 42.3974 113.79 41.8202 113.281 41.4637C113.162 41.3958 112.891 41.1582 112.891 40.9036C112.891 40.6489 113.162 40.4283 113.281 40.3434C113.671 40.0718 114.215 39.902 114.775 39.902C115.352 39.902 115.895 40.0718 116.269 40.3434C116.387 40.4283 116.659 40.6489 116.659 40.8866V40.9036H118C118 40.9036 117.983 40.3604 117.66 39.902C117.151 39.1382 116.048 38.595 114.775 38.595C113.009 38.595 111.583 39.6304 111.583 40.9036C111.583 41.7353 112.212 42.4653 113.145 42.8727C113.57 43.0594 115.624 43.6874 115.624 43.6874C115.861 43.7723 116.099 43.8742 116.269 43.993C116.387 44.0948 116.676 44.3155 116.676 44.5701C116.676 44.8248 116.387 45.0454 116.269 45.1303C115.895 45.4019 115.352 45.5717 114.775 45.5717C114.215 45.5717 113.671 45.4019 113.281 45.1303C113.162 45.0454 112.908 44.8248 112.891 44.5701H111.566C111.566 44.5701 111.583 45.1133 111.906 45.5717C112.415 46.3355 113.519 46.8787 114.775 46.8787C116.54 46.8787 117.983 45.8433 117.983 44.5701C117.983 43.6026 117.151 42.7708 115.98 42.4313Z" fill="white"/>
</g>
</g>
</svg>
