<svg width="20" height="20" viewBox="0 0 20 20" fill="none" xmlns="http://www.w3.org/2000/svg">
<g id="smile">
<rect id="&#231;&#159;&#169;&#229;&#189;&#162;" opacity="0.01" width="20" height="20" fill="white"/>
<path id="&#229;&#189;&#162;&#231;&#138;&#182;" fill-rule="evenodd" clip-rule="evenodd" d="M1.25 10C1.25 5.16797 5.16797 1.25 10 1.25C14.832 1.25 18.75 5.16797 18.75 10C18.75 14.832 14.832 18.75 10 18.75C5.16797 18.75 1.25 14.832 1.25 10ZM5.625 8.22266C5.625 8.74042 6.04473 9.16016 6.5625 9.16016C7.08027 9.16016 7.5 8.74042 7.5 8.22266C7.5 7.70489 7.08027 7.28516 6.5625 7.28516C6.04473 7.28516 5.625 7.70489 5.625 8.22266ZM12.5 8.22266C12.5 8.74042 12.9197 9.16016 13.4375 9.16016C13.9553 9.16016 14.375 8.74042 14.375 8.22266C14.375 7.70489 13.9553 7.28516 13.4375 7.28516C12.9197 7.28516 12.5 7.70489 12.5 8.22266ZM15.1367 15.1367C14.4688 15.8047 13.6914 16.3281 12.8262 16.6953C11.9336 17.0742 10.9824 17.2656 10 17.2656C9.01758 17.2656 8.06641 17.0742 7.17188 16.6953C6.30664 16.3301 5.5293 15.8047 4.86133 15.1367C4.19336 14.4688 3.66992 13.6914 3.30273 12.8262C2.92578 11.9336 2.73438 10.9824 2.73438 10C2.73438 9.01758 2.92578 8.06641 3.30469 7.17188C3.66992 6.30664 4.19531 5.5293 4.86328 4.86133C5.53125 4.19336 6.30859 3.66992 7.17383 3.30273C8.06641 2.92578 9.01758 2.73438 10 2.73438C10.9824 2.73438 11.9336 2.92578 12.8281 3.30469C13.6934 3.66992 14.4707 4.19531 15.1387 4.86328C15.8066 5.53125 16.3301 6.30859 16.6973 7.17383C17.0742 8.06641 17.2656 9.01758 17.2656 10C17.2656 10.9824 17.0742 11.9336 16.6953 12.8281C16.3301 13.6934 15.8047 14.4707 15.1367 15.1367ZM12.0293 10.4102H12.9688C13.0586 10.4102 13.1289 10.4844 13.125 10.5742C13.0391 12.2207 11.6699 13.5352 10 13.5352C8.33008 13.5352 6.96094 12.2207 6.875 10.5742C6.87109 10.4844 6.94141 10.4102 7.03125 10.4102H7.9707C8.05273 10.4102 8.12305 10.4727 8.12891 10.5547C8.20117 11.5215 9.01367 12.2852 10 12.2852C10.9863 12.2852 11.7969 11.5215 11.8711 10.5547C11.877 10.4727 11.9473 10.4102 12.0293 10.4102Z" fill="white"/>
</g>
</svg>
