<svg width="20" height="20" viewBox="0 0 20 20" fill="none" xmlns="http://www.w3.org/2000/svg">
<g id="pie chart">
<rect id="&#231;&#159;&#169;&#229;&#189;&#162;" opacity="0.01" width="20" height="20" fill="white"/>
<path id="&#229;&#189;&#162;&#231;&#138;&#182;" fill-rule="evenodd" clip-rule="evenodd" d="M18.5938 9.03087L18.543 8.48009C18.377 6.68126 17.5781 4.98399 16.293 3.70274C15.0078 2.41954 13.3086 1.62266 11.5039 1.45665L10.9512 1.40587C10.8594 1.39805 10.7812 1.46837 10.7812 1.56016V9.06212C10.7812 9.14805 10.8516 9.21837 10.9375 9.21837L18.4375 9.19884C18.5293 9.19884 18.6016 9.12071 18.5938 9.03087ZM9.88281 10.1168H16.875C16.9609 10.1168 17.0312 10.1871 17.0312 10.2731V10.7809C17.0312 11.8356 16.8242 12.859 16.416 13.8238C16.0234 14.7535 15.459 15.5895 14.7422 16.3063C14.0254 17.0231 13.1895 17.5875 12.2598 17.9801C11.2969 18.3863 10.2734 18.5934 9.21875 18.5934C8.16406 18.5934 7.14062 18.3863 6.17578 17.9781C5.24609 17.5856 4.41016 17.0211 3.69336 16.3043C2.97656 15.5875 2.41211 14.7516 2.01953 13.8219C1.61328 12.859 1.40625 11.8356 1.40625 10.7809C1.40625 9.72618 1.61328 8.70274 2.02148 7.7379C2.41406 6.80821 2.97852 5.97227 3.69531 5.25548C4.41211 4.53868 5.24805 3.97423 6.17773 3.58165C7.14062 3.1754 8.16406 2.96837 9.21875 2.96837H9.72656C9.8125 2.96837 9.88281 3.03868 9.88281 3.12462V10.1168ZM9.1875 17.2652C10.9102 17.2731 12.5605 16.5992 13.7832 15.3863C14.8633 14.316 15.5195 12.9352 15.6699 11.4449H8.55469V4.32969C7.07227 4.47813 5.69922 5.12852 4.63281 6.19493C3.4082 7.41954 2.73438 9.04844 2.73438 10.7809C2.73438 12.5133 3.4082 14.1422 4.63281 15.3668C5.84961 16.5836 7.4668 17.2574 9.1875 17.2652ZM12.1055 2.88243V7.89415L17.1133 7.88048C16.8594 6.65977 16.248 5.52696 15.3555 4.63634C14.4629 3.74571 13.3281 3.13829 12.1055 2.88243Z" fill="white"/>
</g>
</svg>
