<svg width="20" height="20" viewBox="0 0 20 20" fill="none" xmlns="http://www.w3.org/2000/svg">
<g id="line chart">
<rect id="&#231;&#159;&#169;&#229;&#189;&#162;" opacity="0.01" width="20" height="20" fill="white"/>
<path id="&#229;&#189;&#162;&#231;&#138;&#182;" fill-rule="evenodd" clip-rule="evenodd" d="M3.90625 15.4688H17.3438C17.4297 15.4688 17.5 15.5391 17.5 15.625V16.7188C17.5 16.8047 17.4297 16.875 17.3438 16.875H2.65625C2.57031 16.875 2.5 16.8047 2.5 16.7188V3.28125C2.5 3.19531 2.57031 3.125 2.65625 3.125H3.75C3.83594 3.125 3.90625 3.19531 3.90625 3.28125V15.4688ZM6.19336 12.4551C6.13086 12.5156 6.0332 12.5156 5.97266 12.4551L5.20117 11.6797C5.14062 11.6191 5.14062 11.5195 5.20117 11.459L8.79102 7.89062C8.85156 7.83008 8.95117 7.83008 9.01172 7.89062L11.5 10.3945L15.9922 5.9043C16.0527 5.84375 16.1523 5.84375 16.2129 5.9043L16.9863 6.67773C17.0469 6.73828 17.0469 6.83789 16.9863 6.89844L11.6074 12.2754C11.5469 12.3359 11.4473 12.3359 11.3867 12.2754L8.89453 9.76758L6.19336 12.4551Z" fill="white"/>
</g>
</svg>
